<?xml version="1.0" encoding="UTF-8"?>
<svg width="13px" height="13px" viewBox="0 0 13 13" version="1.1" xmlns="http://www.w3.org/2000/svg" xmlns:xlink="http://www.w3.org/1999/xlink">
    <!-- Generator: sketchtool 63.1 (101010) - https://sketch.com -->
    <title>7DBADFD1-4CE7-47D2-BB85-810AF43958C9</title>
    <desc>Created with sketchtool.</desc>
    <g id="Page-1" stroke="none" stroke-width="1" fill="none" fill-rule="evenodd">
        <g id="PHODAR-Homepage" transform="translate(-1328.000000, -39.000000)" fill="#000000" fill-rule="nonzero">
            <g id="Menu" transform="translate(-1.000000, 0.000000)">
                <g id="Language" transform="translate(1329.000000, 37.000000)">
                    <g id="language" transform="translate(0.000000, 2.000000)">
                        <path d="M6.5,0 C2.9101888,0 0,2.9101888 0,6.5 C0,10.0898112 2.9101888,13 6.5,13 C10.0898112,13 13,10.0898112 13,6.5 C12.9959798,2.91188151 10.0881185,0.00402019583 6.5,0 Z M12.1215902,8.77711589 L10.2730469,9.09608562 C10.4846354,8.32008464 10.5988932,7.52080891 10.6131755,6.71666667 L12.5612712,6.71666667 C12.5368327,7.42400717 12.3879802,8.1215088 12.1215902,8.77711589 L12.1215902,8.77711589 Z M0.438728848,6.71666667 L2.38682454,6.71666667 C2.40110677,7.52080891 2.51536458,8.32008464 2.72695313,9.09608562 L0.878409838,8.77711589 C0.61201985,8.1215088 0.463167304,7.42400717 0.438728848,6.71666667 Z M0.878409838,4.22288411 L2.72695313,3.90391438 C2.51536458,4.67991536 2.40110677,5.47919109 2.38682454,6.28333333 L0.438728848,6.28333333 C0.463167304,5.57599282 0.61201985,4.8784912 0.878409838,4.22288411 Z M6.71666667,3.47883301 C7.49520671,3.48877766 8.27184245,3.55965984 9.03937989,3.69095052 L9.80416667,3.82287598 C10.0391357,4.62246907 10.1655599,5.44999187 10.1800537,6.28333333 L6.71666667,6.28333333 L6.71666667,3.47883301 Z M9.11322428,3.26385906 C8.32135417,3.12854818 7.51996256,3.05544433 6.71666667,3.04549968 L6.71666667,0.445499681 C7.95879719,0.564835619 9.03779297,1.70212402 9.64928385,3.3572754 L9.11322428,3.26385906 Z M6.28333333,3.04549968 C5.48003744,3.05544433 4.67885741,3.12854818 3.8869873,3.26385906 L3.35071615,3.35664062 C3.96220703,1.70106609 5.04120281,0.563354485 6.28333333,0.444547513 L6.28333333,3.04549968 Z M3.96083171,3.69095052 C4.72826334,3.55965984 5.50479329,3.48877766 6.28333333,3.47883301 L6.28333333,6.28333333 L2.8199463,6.28333333 C2.8344401,5.44999187 2.96086426,4.62246907 3.19583333,3.82287598 L3.96083171,3.69095052 Z M2.8199463,6.71666667 L6.28333333,6.71666667 L6.28333333,9.52116699 C5.50479329,9.51122234 4.72815755,9.44034016 3.96062011,9.30904948 L3.19583333,9.17712402 C2.96086426,8.37753093 2.8344401,7.55000813 2.8199463,6.71666667 L2.8199463,6.71666667 Z M3.88677572,9.73614094 C4.67864583,9.87166343 5.47993165,9.94508464 6.28333333,9.95566406 L6.28333333,12.5556641 C5.04120281,12.4362223 3.96220703,11.2989339 3.35071615,9.64378255 L3.88677572,9.73614094 Z M6.71666667,9.95566406 C7.51996256,9.94508464 8.32114259,9.87166342 9.1130127,9.73614094 L9.64928385,9.64335937 C9.03779297,11.2989339 7.95879719,12.4366455 6.71666667,12.5554525 L6.71666667,9.95566406 Z M9.03916829,9.30904948 C8.27173666,9.44034016 7.49520671,9.51122234 6.71666667,9.52116699 L6.71666667,6.71666667 L10.1800537,6.71666667 C10.1655599,7.55000813 10.0391357,8.37753093 9.80416667,9.17712402 L9.03916829,9.30904948 Z M10.6131755,6.28333333 C10.5988932,5.47919109 10.4846354,4.67991536 10.2730469,3.90391438 L12.1215902,4.22288411 C12.3879802,4.8784912 12.5368327,5.57599282 12.5612712,6.28333333 L10.6131755,6.28333333 Z M11.9023844,3.74532876 L10.1304362,3.43958333 C9.81188964,2.4003662 9.21595052,1.46768391 8.40662436,0.742041029 C9.9200114,1.24710286 11.1750488,2.32525229 11.9023844,3.74532876 Z M4.59337564,0.742041029 C3.78404948,1.46768391 3.18811036,2.4003662 2.8695638,3.43958333 L1.09761557,3.74532876 C1.82495116,2.32525229 3.0799886,1.24710286 4.59337564,0.742041029 Z M1.09761557,9.25467124 L2.8695638,9.56041667 C3.18811036,10.5996338 3.78404948,11.5323161 4.59337564,12.257959 C3.0799886,11.7528971 1.82495116,10.6747477 1.09761557,9.25467124 Z M8.40662436,12.257959 C9.21595052,11.5323161 9.81188964,10.5996338 10.1304362,9.56041667 L11.9023844,9.25467124 C11.1750488,10.6747477 9.9200114,11.7528971 8.40662436,12.257959 Z" id="Shape"></path>
                    </g>
                </g>
            </g>
        </g>
    </g>
</svg>