<?xml version="1.0" encoding="UTF-8"?>
<svg width="39px" height="39px" viewBox="0 0 39 39" version="1.1" xmlns="http://www.w3.org/2000/svg" xmlns:xlink="http://www.w3.org/1999/xlink">
    <!-- Generator: sketchtool 63.1 (101010) - https://sketch.com -->
    <title>3FE157DB-ECDD-42FE-883F-CC6DEED49A87</title>
    <desc>Created with sketchtool.</desc>
    <g id="Page-1" stroke="none" stroke-width="1" fill="none" fill-rule="evenodd">
        <g id="PHODAR-Homepage" transform="translate(-28.000000, -26.000000)" fill="#1A1919" fill-rule="nonzero">
            <g id="logo" transform="translate(28.000000, 26.000000)">
                <path d="M11.1150479,33.9604382 L11.1150479,13.2909001 L11.4683935,13.3403205 C12.9637084,13.5494612 13.7578391,14.097515 14.2016429,15.3388679 C14.5925404,16.4322379 14.7248916,18.0450291 14.7348542,21.3039642 L14.735472,21.6957433 L14.7371547,21.7049063 C14.7421835,21.732322 14.7487957,21.7647154 14.7571562,21.8016611 C14.7815434,21.9094303 14.8149113,22.0304372 14.8585408,22.1612779 C14.9836119,22.5363546 15.1650139,22.9115525 15.4121294,23.2603266 C15.9502788,24.0198604 16.7207104,24.5483766 17.7780688,24.7520692 L17.79786,24.7557319 L37.7212334,24.7557319 L37.8037831,24.8163391 C38.7053187,25.4782374 38.9801075,26.3013266 38.7244989,27.1326433 C38.6028568,27.5282606 38.3499657,27.9154322 38.0817564,28.1800934 L38.0565704,28.204543 L38.0391874,28.2208458 L38.0463892,28.2266629 C38.5597265,28.6451807 38.8282992,29.0989156 38.8670408,29.5757796 L38.8690548,29.603857 L38.8705161,29.631456 C38.8909671,30.0996303 38.6940733,30.5323045 38.3616742,30.9210812 C38.3141594,30.9766549 38.2652552,31.029591 38.2155553,31.0798189 L38.1781404,31.1169809 L38.1583342,31.1359159 L38.1708449,31.1468059 C38.8736087,31.7647282 39.1217578,32.4716027 38.9452343,33.1587965 L38.9378453,33.1866446 L38.930496,33.2127313 C38.8071234,33.6386348 38.5166682,34.0230805 38.1764887,34.2662611 L38.1508838,34.2842332 L38.1427873,34.2896436 C38.7349125,34.7437309 38.9784738,35.3231725 38.8610463,35.9370272 L38.8552774,35.9658265 L38.8496955,35.9915104 C38.7060631,36.628924 38.1768676,37.2194394 37.5084058,37.5379385 L37.4769706,37.5526681 L37.4143547,37.581746 L14.3632966,37.581746 C14.3285237,37.5821678 14.2773039,37.5808176 14.2116738,37.5756498 C14.1109115,37.5677157 14.0000152,37.5523867 13.8810511,37.5278356 C13.5486714,37.459241 13.2104553,37.3315669 12.8845488,37.1298695 C11.9828742,36.57184 11.3505102,35.565471 11.1249827,34.030126 L11.1150479,33.9604382 Z M11.7341707,13.9989696 L11.7341707,33.9187277 L11.7379992,33.9452203 C11.9338808,35.2779346 12.4477228,36.1185574 13.1650188,36.5856079 L13.1901231,36.6017491 L13.2153914,36.6175882 C13.4756129,36.7786344 13.7452256,36.8804111 14.0087663,36.9347992 C14.1011732,36.9538696 14.1860673,36.9656043 14.2613136,36.9715293 L14.2919841,36.9736636 C14.3107967,36.9747831 14.3264281,36.9754867 14.3394025,36.9754867 L37.2731948,36.9754867 L37.2972814,36.963283 C37.7577624,36.7253437 38.1198463,36.320653 38.2326601,35.9106816 L38.2392543,35.885576 L38.245107,35.8609579 C38.349357,35.3983163 38.133183,34.9636799 37.5199201,34.6052083 L37.4908823,34.5884609 L37.4704199,34.5769216 L36.5259806,34.5821489 L36.3362595,34.5872514 C35.1981811,34.6157213 33.4079182,34.6246994 31.1598157,34.6183464 L30.4468298,34.6158839 L30.3726579,34.6154408 L24.9620745,34.6450126 L24.9620745,33.9669445 L26.2267195,33.9803649 C26.4221963,33.9822442 26.6275604,33.9841438 26.8416787,33.98604 C27.8461814,33.9949356 28.8771534,34.0023188 29.8924449,34.0073148 L30.3720388,34.0094364 L36.5154573,33.9760351 L36.7421999,33.9688309 C36.9074561,33.9629604 37.0501318,33.9565146 37.1692893,33.9495054 L37.2542332,33.9441431 L37.3318631,33.9384193 C37.4405037,33.9297211 37.5130653,33.920738 37.536586,33.9144583 C37.8465413,33.8316968 38.214352,33.4633957 38.3348577,33.0473889 C38.478057,32.5530398 38.2927019,32.0332833 37.6778388,31.530176 L37.6466635,31.5050135 L24.9620745,31.5050135 L24.9620745,30.8322066 L37.5792479,30.8322066 L37.6009983,30.8143604 L37.6196195,30.7986239 C37.7107508,30.7208025 37.802153,30.631209 37.8868996,30.5320887 C38.1291901,30.2487036 38.2647753,29.9507554 38.2519585,29.6573489 C38.2362594,29.2979572 37.999676,28.9286776 37.4658629,28.5526395 L37.4359003,28.5317416 L37.4202021,28.5209859 L25.2375153,28.5209859 L25.2369792,27.9149147 L37.4733091,27.8941731 L37.4741158,27.8937339 C37.6785833,27.7686274 37.9811077,27.393794 38.1149694,27.0088516 L38.1238319,26.9825926 L38.131649,26.9579615 C38.302775,26.4014076 38.1446895,25.8704579 37.5396783,25.3836625 L37.5121763,25.3618036 L17.7397269,25.3618036 L17.711656,25.356691 C16.4622844,25.1291396 15.5387234,24.502428 14.9033969,23.6057403 C14.6195018,23.2050562 14.4126711,22.7772632 14.269981,22.349349 C14.219894,22.1991429 14.1812984,22.0591777 14.1526869,21.9327413 L14.1407491,21.8780893 C14.1312745,21.8329805 14.1247767,21.7972485 14.1208237,21.7718683 L14.1163491,21.7415202 L14.1163491,21.7199862 C14.1163491,15.8026894 13.7778889,14.4453299 11.8412824,14.0211372 L11.7821068,14.0085648 L11.7341707,13.9989696 Z M35.2730294,7.21596973e-05 C35.3078035,-0.000349624761 35.3590255,0.00100064989 35.4246585,0.00616864214 C35.5254255,0.0141031139 35.636327,0.0294327218 35.7552966,0.0539847573 C36.0876921,0.122582001 36.4259241,0.250260656 36.7518455,0.451965261 C37.6535629,1.01001574 38.285953,2.01642291 38.5114807,3.55182656 L38.5214153,3.62151545 L38.5214153,24.2909841 L38.1680708,24.2415651 C36.6727209,24.032425 35.8785738,23.4843731 35.4347608,22.2430195 C35.0316398,21.1154825 34.9034834,19.4355592 34.9009606,15.9675394 L34.9009224,15.8863442 L34.8992401,15.876987 C34.8942109,15.849572 34.8875981,15.8171795 34.879237,15.7802348 C34.8548478,15.6724684 34.821478,15.5514646 34.7778469,15.4206273 C34.6527708,15.0455604 34.4713661,14.6703721 34.2242513,14.321607 C33.6860849,13.5620669 32.9156372,13.0335552 31.8582644,12.8298839 L31.8387408,12.8262209 L11.915234,12.8262209 L11.8326862,12.7656182 C10.9311471,12.1037512 10.656345,11.2806712 10.9119265,10.4493288 C11.0335512,10.0537143 11.2864114,9.66653318 11.5545966,9.40183501 L11.5797803,9.37738191 L11.597207,9.36097238 L11.5900575,9.35522729 C11.076685,8.93671028 10.8080861,8.48297983 10.7693266,8.00612041 L10.7673117,7.97804326 L10.7658493,7.95044457 C10.7453814,7.48227083 10.9422717,7.04960157 11.2746734,6.66083464 C11.3221866,6.60526466 11.3710892,6.55233228 11.4207875,6.50210792 L11.458201,6.46494849 L11.4779227,6.44590226 L11.4654833,6.43507484 C10.7627419,5.81714824 10.5146029,5.11027067 10.6911349,4.42308434 L10.6985242,4.39523649 L10.7058738,4.36915016 C10.8292563,3.94323469 11.1197295,3.55878939 11.4599304,3.31561561 L11.4855368,3.29764402 L11.4935383,3.29217457 C10.9014839,2.83813519 10.6579202,2.25871754 10.7753395,1.64486941 L10.781108,1.61607041 L10.7866895,1.5903867 C10.9303082,0.953000914 11.4594629,0.362475534 12.1278879,0.0438987873 L12.1593214,0.0291655421 L12.2219514,7.21596973e-05 L35.2730294,7.21596973e-05 Z M35.3750188,0.610289145 L35.3443461,0.608154678 C35.325532,0.607035141 35.3098995,0.606331489 35.2969242,0.606331489 L12.3629244,0.606331489 L12.3390785,0.618531157 C11.8786023,0.856531871 11.5165318,1.26124585 11.4037256,1.67121012 L11.3971319,1.69631517 L11.3912795,1.72093275 C11.2870377,2.18356251 11.503207,2.61816639 12.1164667,2.97661053 L12.1455043,2.99335664 L12.1659057,3.00476191 L13.1129573,2.99957663 L13.4144662,2.99189112 C14.5087658,2.96670691 16.1558369,2.95811863 18.1995491,2.96279716 L19.1892289,2.96596228 L19.2605033,2.96624269 L24.6743887,2.93681064 L24.6743887,3.61487182 L23.4097351,3.60145879 C23.2142561,3.59958055 23.0088899,3.59768215 22.7947696,3.59578721 L22.0370779,3.58941707 C21.2757349,3.58335785 20.5054051,3.57827233 19.7437934,3.57452905 L19.2611912,3.57224703 L13.1274719,3.6055766 L12.9400281,3.61149689 C12.4815723,3.62726378 12.1833729,3.64763899 12.1046067,3.66624216 L12.0998633,3.66743097 C11.7898543,3.75019153 11.4220247,4.11848405 11.3015097,4.53450064 C11.1583048,5.02884261 11.3436533,5.54860283 11.9584953,6.05171248 L11.9895933,6.0768046 L24.6743887,6.07687194 L24.6743887,6.74974619 L12.0569401,6.74974619 L12.0353275,6.76758868 L12.0167073,6.78332371 C11.9255809,6.86113773 11.8341835,6.95072313 11.7494415,7.04983478 C11.5071564,7.33320413 11.3715792,7.63113685 11.3844059,7.92453023 C11.4001178,8.28391451 11.636727,8.65319554 12.1705833,9.02923978 L12.2005483,9.05013808 L12.2162611,9.06089955 L24.398879,9.06089955 L24.3994135,9.66697077 L12.1630853,9.68757768 L12.162337,9.6880727 C11.9578272,9.81325109 11.6553137,10.1881292 11.5214615,10.5730957 L11.5125997,10.5993562 L11.5047832,10.6239889 C11.3336721,11.18057 11.4917672,11.7115174 12.0967788,12.1982899 L12.1242869,12.2201492 L31.8965951,12.2201492 L31.9246627,12.2252606 C33.174053,12.4527867 34.0976337,13.0794932 34.7329799,13.976188 C35.0168738,14.3768612 35.2237074,14.8046425 35.3664029,15.2325451 C35.4164918,15.3827472 35.4550896,15.5227086 35.4837033,15.6491416 L35.495642,15.7037921 C35.5051175,15.7488998 35.5116159,15.7846308 35.5155694,15.8100103 L35.5200453,15.8403617 L35.5200453,15.8618993 C35.5200453,21.7792067 35.8585087,23.1365566 37.7951673,23.5607482 L37.8543444,23.5733206 L37.9022925,23.5828485 L37.9022925,3.66362917 L37.8984637,3.63672903 C37.7025813,2.3039599 37.1887159,1.4633013 36.4713805,0.996229731 L36.4462748,0.980087881 L36.4210052,0.964247995 C36.1607687,0.803194088 35.8911397,0.701412275 35.6275825,0.647021379 C35.5351697,0.62794993 35.4502701,0.616214494 35.3750188,0.610289145 Z" id="Stroke-1"></path>
                <path d="M0,0 L8.50909091,0.0578812403 L8.50909091,37.5484355 L0.0027469212,37.5818182 L0,0 Z M4.35803856,32.0661808 C3.729635,32.0600312 3.11343345,32.0661808 2.47892889,32.0661808 L2.47892889,32.0661808 L2.47892889,36.3708888 L3.59541288,36.3708888 L3.59541288,35.0241302 L4.1811094,35.0241302 L4.91323005,36.3708888 L6.09682511,36.3708888 L6.09682511,36.2109996 L5.26098736,34.8457923 L5.28503723,34.8289139 C5.68986052,34.5385428 5.88950825,34.0737831 5.89549193,33.5912774 C5.89549193,32.8348787 5.38910848,32.0661808 4.35803856,32.0661808 Z M4.34728416,33.0730042 C4.67336348,33.0730042 4.82386162,33.3282139 4.82386162,33.6020974 C4.82386162,33.8759809 4.66709272,34.1498645 4.34728416,34.1498645 L4.34728416,34.1498645 L3.55089814,34.1498645 L3.55089814,33.0730042 L4.34728416,33.0730042 Z M4.41992716,25.9388048 L3.90618256,25.9388048 L1.94294426,30.0939319 L1.94294426,30.2462459 L3.11110162,30.2462459 L3.35574191,29.7161931 L4.95813578,29.7161931 L5.20889207,30.2462459 L6.36481742,30.2462459 L6.36481742,30.0939319 L4.41992716,25.9388048 Z M4.11737844,27.7560065 L4.55586931,28.765563 L3.6848943,28.765563 L4.11737844,27.7560065 Z M4.11563218,19.8141619 L2.47892889,19.8141619 L2.47892889,24.1216031 L4.11563218,24.1216031 C5.53778636,24.1216031 6.24886344,23.0308776 6.23047352,21.9463145 C6.23047352,20.8864005 5.51326645,19.8141619 4.11563218,19.8141619 Z M4.10921545,20.8237184 C4.75631884,20.8237184 5.09185394,21.3927081 5.09185394,21.9616978 C5.09185394,22.5368722 4.77429394,23.1120465 4.10921545,23.1120465 L3.61789622,23.1120465 L3.61789622,20.8237184 L4.10921545,20.8237184 Z M4.46750277,13.6222153 C3.36362078,13.6222153 2.27793466,14.3676485 2.27793466,15.8462947 C2.27793466,17.331051 3.32722907,18.064264 4.44930691,18.064264 C5.73514746,18.064264 6.63280973,17.1538578 6.63280973,15.8462947 C6.63280973,14.3676485 5.55318889,13.6222153 4.46750277,13.6222153 Z M4.43405462,14.6990756 C4.96394851,14.6990756 5.4938424,15.1020126 5.4938424,15.8768915 C5.4938424,16.6517704 4.95176704,17.0547074 4.42187315,17.0547074 C3.87370706,17.0547074 3.34990391,16.6517704 3.34990391,15.8768915 C3.34990391,15.0834155 3.87979779,14.6990756 4.43405462,14.6990756 Z M3.59353328,7.56487619 L2.47892889,7.56487619 L2.47892889,11.8723173 L3.59353328,11.8723173 L3.59353328,10.1493409 L4.91522264,10.1493409 L4.91522264,11.8723173 L6.02982703,11.8723173 L6.02982703,7.56487619 L4.91522264,7.56487619 L4.91522264,9.12170852 L3.59353328,9.12170852 L3.59353328,7.56487619 Z M2.47892889,1.44296647 L2.47892889,5.74767446 L3.59537237,5.74767446 L3.59537237,4.63459997 L4.36407117,4.63459997 C5.37680132,4.63459997 5.89536797,3.84745337 5.89536797,3.06030676 C5.91367032,2.24856183 5.38900289,1.44296647 4.36407117,1.44296647 C3.72958962,1.43681689 3.11341043,1.44296647 2.47892889,1.44296647 Z M4.3519337,2.44978984 C4.6624126,2.44978984 4.82386162,2.74512279 4.82386162,3.04648294 C4.82386162,3.3538703 4.64999344,3.66125766 4.3519337,3.66125766 L3.55089814,3.66125766 L3.55089814,2.44978984 L4.3519337,2.44978984 Z" id="Combined-Shape"></path>
                <path d="M25.0998622,19.4231255 C25.8490632,19.9423112 26.355547,20.562382 26.6524907,21.263511 C27.0568909,22.2183606 27.051695,23.2440428 26.7981934,24.208828 C26.7714824,24.3104855 26.7434703,24.4048334 26.7151411,24.4910822 C25.7440844,24.8367374 24.6670463,24.9219874 23.586568,24.6816575 C22.6545432,24.4742964 21.8275467,24.0485824 21.1474187,23.4703006 C21.6125009,23.3530488 22.0724404,23.1930601 22.5093863,22.9830646 C23.999529,22.2669045 24.955427,21.1071012 25.0998622,19.4231255 Z M25.4012582,19.1272384 C26.0878437,18.8965706 26.7766086,18.8937575 27.4656352,19.0887645 C28.1657421,19.2869076 28.8405324,19.681609 29.4733383,20.2159897 C29.739552,20.4407971 29.9845759,20.678741 30.2056837,20.9192089 C29.7033795,22.4508518 28.5913632,23.6458074 27.2062922,24.2899779 C27.474774,23.2510276 27.4768824,22.1450336 27.0349389,21.1015383 C26.7159496,20.3483564 26.1796424,19.682172 25.4012582,19.1272384 Z M19.2218838,18.2247222 C19.3462443,18.34971 19.4760967,18.4727272 19.6112242,18.5926098 C20.3024996,19.2058961 21.048121,19.6635873 21.8378975,19.8999426 C22.7667896,20.177931 23.7097057,20.1333898 24.6462967,19.7109585 C24.4281816,21.0595765 23.5976796,21.9992258 22.3294752,22.6087227 C21.8371834,22.8453174 21.3102819,23.0154273 20.7808026,23.129425 C19.5573235,21.8872779 18.9293938,20.1054182 19.2127872,18.2805332 L19.2218838,18.2247222 Z M29.4416855,15.8607101 C30.3381977,17.1234393 30.7171286,18.7463041 30.3543625,20.3769663 C30.348658,20.4026121 30.3427882,20.4281783 30.3367545,20.4536643 C30.1519853,20.2640883 29.9531795,20.077586 29.7413083,19.8986687 C29.0667119,19.3289976 28.3421719,18.9051964 27.5787406,18.6891314 C26.7562661,18.4563561 25.9269177,18.4773024 25.1063118,18.7920912 C25.3622014,17.5319745 26.2495077,16.712212 27.5967053,16.2423414 C28.1293728,16.0565596 28.701714,15.9388222 29.280422,15.8765492 C29.3279634,15.8714334 29.3749843,15.8667587 29.4214397,15.8625067 L29.4416855,15.8607101 Z M22.8215457,13.8363849 C22.8100839,13.8755484 22.7987592,13.9155315 22.7876064,13.9563056 C22.5054302,14.9879175 22.4418478,16.0666783 22.7359318,17.0831639 C22.9965742,17.9840607 23.5254774,18.7638237 24.3587955,19.3828479 C23.5548583,19.7156647 22.7536919,19.7404805 21.9569767,19.5020485 C21.2317815,19.2850204 20.5363437,18.8581338 19.8868617,18.2819258 C19.6875311,18.1050835 19.4999638,17.9207563 19.3251719,17.7333135 C19.7965314,15.8953791 21.1256206,14.4892029 22.7848311,13.8503099 L22.8215457,13.8363849 Z M23.3681226,13.6612236 C24.217741,13.435828 25.1325303,13.4052244 26.0497741,13.609297 C27.3048916,13.8885127 28.3695534,14.5637197 29.1415659,15.4742567 C28.5655352,15.542081 27.9959671,15.663221 27.4599262,15.8501794 C25.8596177,16.4083291 24.821345,17.4500026 24.642156,19.0758186 C23.8619209,18.5072489 23.3742739,17.7951079 23.1349037,16.9677375 C22.8652134,16.0355671 22.924474,15.0301314 23.1882239,14.0658845 C23.2265516,13.9257614 23.2669503,13.795868 23.307742,13.6776778 L23.3681226,13.6612236 Z" id="Combined-Shape"></path>
                <path d="M11.1116326,13.4535472 L11.5793555,13.520326 C13.0992446,13.7373268 13.920748,14.3160675 14.3750545,15.6132372 C14.7804996,16.7708943 14.9082245,18.47962 14.9107384,22.0064376 L14.910775,22.0808115 L14.9171,22.1140141 C14.9205141,22.1311353 14.9247499,22.1513613 14.9298793,22.1745004 C14.9533915,22.280564 14.9856532,22.3999938 15.0278989,22.5293208 C15.149151,22.9005101 15.3250345,23.2718634 15.5642786,23.6165536 C16.0758843,24.3536482 16.8033207,24.868968 17.8012885,25.0766313 L17.8581538,25.0880155 L37.6621362,25.0880155 L37.7714071,25.1699103 C38.7008708,25.8665119 38.9882315,26.7451676 38.7220987,27.6287217 C38.6072643,28.0099687 38.3804353,28.3829158 38.1288052,28.6587721 L38.1035628,28.6860308 L38.0940294,28.69596 L38.1025985,28.7034811 C38.5770028,29.1247531 38.8294015,29.5834513 38.8676931,30.0677387 L38.8698075,30.0980398 L38.8713143,30.1272149 C38.8928808,30.6311959 38.6872654,31.0924367 38.3423589,31.5042358 C38.3179583,31.5333688 38.2932098,31.5618015 38.2681867,31.5895278 L38.2304554,31.6305867 L38.2093785,31.6525677 L38.2191343,31.661744 C38.8861638,32.296695 39.1209538,33.0235858 38.9422781,33.7321255 L38.934594,33.761637 L38.9270685,33.7888867 C38.8113586,34.1966486 38.5559197,34.5681353 38.2465989,34.8279513 L38.2199557,34.849946 L38.2119736,34.8562247 L38.2212477,34.8642523 C38.7577282,35.3336384 38.9769152,35.921586 38.8599494,36.5423318 L38.8540273,36.5723931 L38.8483328,36.5991084 C38.6985059,37.2778464 38.1515237,37.9008618 37.4610813,38.2365177 L37.4291138,38.2518047 L37.3462293,38.2909091 L14.4277254,38.2909091 C14.4046742,38.2909091 14.3766261,38.2904219 14.3439241,38.2887459 L14.30247,38.2862031 L14.2801086,38.2845105 C14.1758525,38.2761305 14.0614552,38.2599885 13.9389566,38.2341819 C13.5975887,38.1622665 13.2504654,38.0285037 12.9160456,37.8172313 C11.9947174,37.2351747 11.3505391,36.1886015 11.1225016,34.6036421 L11.1116326,34.5257008 L11.1116326,13.4535472 Z M11.931096,14.4159605 L11.931096,34.4688622 L11.9339498,34.4889113 C12.1242954,35.8108437 12.6184751,36.6365695 13.3051891,37.0933819 L13.3295059,37.1093517 L13.3539814,37.1250164 C13.601454,37.2813592 13.857767,37.3801287 14.108013,37.4328476 C14.1953579,37.4512484 14.2753361,37.4625337 14.3458167,37.4681989 L14.381606,37.4706623 C14.3988868,37.4716281 14.4117565,37.4719783 14.4198429,37.4719783 L14.4325354,37.4719783 L37.1582608,37.4719783 L37.1605259,37.4706909 C37.5923393,37.2425067 37.9314639,36.8559245 38.0361737,36.4708556 L38.0425376,36.4462804 L38.0480403,36.4227005 C38.1399747,36.0062242 37.9545051,35.6144662 37.4043168,35.2773182 L37.3769639,35.2607814 L37.3519435,35.246044 L36.4443986,35.2510923 L36.294574,35.2552657 C35.1655332,35.2849459 33.3723163,35.2943356 31.1137863,35.2878203 L30.4056301,35.2853236 L30.3325183,35.2848758 L24.8585932,35.3154165 L24.8585932,34.4217277 L26.0738789,34.4351148 C26.3102032,34.4374806 26.5623035,34.4398877 26.8279825,34.4422895 C27.8250951,34.4513034 28.848481,34.4587847 29.856231,34.4638468 L30.3316987,34.4659959 L36.4273752,34.4322143 L36.6153531,34.4262137 C37.0549668,34.4106731 37.3471126,34.3900462 37.4136922,34.3743669 L37.4177188,34.3733501 C37.6901653,34.2990903 38.0286156,33.9531372 38.1386233,33.5654696 C38.2671726,33.1124616 38.1051634,32.6346192 37.547352,32.1580709 L37.517284,32.132676 L24.8585932,32.132676 L24.8585932,31.2460964 L37.4494677,31.2460964 L37.4597678,31.2372892 C37.524758,31.1806363 37.5899499,31.117499 37.6524311,31.0489403 L37.6834323,31.014214 L37.7139008,30.9786136 C37.9395308,30.709224 38.0639918,30.4300303 38.052531,30.1622024 C38.038654,29.837914 37.8283112,29.4973875 37.3418168,29.1410649 L37.3139839,29.1208788 L37.2966251,29.1085734 L25.234485,29.1085734 L25.2337753,28.2896258 L37.3471629,28.2686738 L37.3503352,28.2663985 C37.4074507,28.2233165 37.4856464,28.1502448 37.5636943,28.0596912 L37.5804089,28.0400238 L37.5943008,28.0232452 C37.7474664,27.8360073 37.8700012,27.6162624 37.9373444,27.3926846 C38.0927902,26.8766085 37.9559012,26.3885648 37.4101108,25.9285918 L37.3841101,25.9069637 L17.7814309,25.9069637 L17.7442734,25.9000553 C16.4761512,25.6642832 15.5363754,25.0132997 14.8908705,24.0832903 C14.6029413,23.6684572 14.3933977,23.2260355 14.2488235,22.7834499 C14.19803,22.6279556 14.1588483,22.4829086 14.1297446,22.3516212 L14.12128,22.3125192 C14.1120822,22.2689403 14.1052286,22.2325645 14.1004274,22.2040498 L14.0953624,22.1717716 L14.0912448,22.1429663 L14.0909151,21.8057952 C14.0837229,18.5143527 13.9577412,16.9008501 13.6015278,15.8837631 C13.3087629,15.0478388 12.8630151,14.6390557 11.9772137,14.4266911 L11.931096,14.4159605 Z M12.2900708,0 L35.2086016,0 C35.2454847,0 35.2951606,0.0014906645 35.3562239,0.00639887961 C35.4604845,0.014779261 35.5748869,0.0309218165 35.6973909,0.0567292809 C36.0387746,0.128647297 36.3859136,0.262414764 36.720348,0.473694336 C37.6417191,1.05577227 38.2859235,2.10238442 38.5139612,3.68740372 L38.5248298,3.76534581 L38.5248298,24.8374284 L38.0571084,24.7706516 C36.5371849,24.5536515 35.7156651,23.974913 35.2613491,22.6777426 C34.8681823,21.5551665 34.7361657,19.91442 34.7262334,16.6001873 L34.7255494,16.2098665 L34.7193583,16.1772948 L34.706514,16.1164896 C34.6830001,16.0104287 34.6507365,15.891002 34.6084892,15.7616784 C34.4872323,15.3904986 34.3113461,15.0191548 34.0721026,14.6744735 C33.5604806,13.9373726 32.8330292,13.422057 31.8350477,13.214414 L31.7784453,13.20303 L11.9743319,13.20303 L11.8650634,13.1211413 C10.9355955,12.4245723 10.648221,11.5459267 10.9143252,10.6623471 C11.0291422,10.2811055 11.2559413,9.90815354 11.5075436,9.63226887 L11.5327833,9.60500724 L11.5422965,9.59488081 L11.5338445,9.58750338 C11.0594075,9.1662333 10.8069838,8.70754008 10.7686747,8.22325698 L10.766559,8.19295611 L10.7650512,8.16378128 C10.7434669,7.65979873 10.9490794,7.19856117 11.2939899,6.78677095 C11.3183897,6.75763988 11.3431375,6.729209 11.3681598,6.70148453 L11.40589,6.66042842 L11.4268791,6.63834138 L11.4171951,6.62922667 C10.7501869,5.99427134 10.5154071,5.2673779 10.6940913,4.55884575 L10.7017757,4.52933449 L10.7093016,4.50208503 C10.8250209,4.09431162 11.0804761,3.72282377 11.389814,3.46301342 L11.4164586,3.44101922 L11.4243522,3.43461609 L11.4151539,3.42668572 C10.8786695,2.95732457 10.6594781,2.36939818 10.776436,1.74865795 L10.7823577,1.71859689 L10.7880519,1.69188184 C10.9378641,1.01317486 11.4848014,0.390151837 12.1752019,0.0544160148 L12.2071676,0.0391253496 L12.2900708,0 Z M35.2219065,0.818975511 L12.4780651,0.818975511 L12.4758443,0.82020884 C12.0440308,1.04845413 11.7049157,1.43506206 11.6002121,1.82012648 L11.5938486,1.84470142 L11.5883463,1.86828084 C11.4964195,2.28474452 11.6818835,2.6764703 12.2320675,3.01359138 L12.2594202,3.03012694 L12.2843824,3.04479675 L13.1970675,3.03967832 L13.4552411,3.03285252 C14.5424384,3.00658275 16.1932064,2.99760442 18.2474006,3.0024045 L19.2303125,3.00561335 L19.3005295,3.00589671 L24.7778693,2.97549936 L24.7778693,3.8691788 L23.5625771,3.85579897 C23.3262503,3.85343459 23.0741473,3.85102896 22.8084657,3.84862878 L22.0563488,3.84217395 C21.3006078,3.83603416 20.5359482,3.83088103 19.779948,3.82708803 L19.3014173,3.82477665 L13.2123673,3.85858612 L13.0360693,3.86422224 C12.867232,3.87005373 12.7208911,3.87646968 12.5980764,3.88345519 L12.5117381,3.88871285 L12.4354706,3.894099 C12.3161817,3.90319201 12.2373302,3.91256067 12.2187253,3.91763223 C11.9462269,3.99189252 11.6077597,4.33783688 11.4977437,4.72551317 C11.3691896,5.17851427 11.5311928,5.65636017 12.0889847,6.13291058 L12.1189736,6.15823301 L24.7778693,6.15830125 L24.7778693,7.04494915 L12.1867216,7.04494915 L12.1765577,7.05375237 C12.1115712,7.11039969 12.0463831,7.17353098 11.9839056,7.24208335 L11.9529062,7.27680642 L11.9224394,7.31240343 C11.696816,7.58177617 11.5723637,7.86095246 11.5838334,8.12876483 C11.5977216,8.45304545 11.8080883,8.79357448 12.2946239,9.14990388 L12.3224591,9.17009034 L12.3397691,9.18240391 L24.4019091,9.18240391 L24.4026166,10.0013515 L12.2892313,10.022167 L12.2861243,10.024498 C12.2289905,10.0676035 12.1507855,10.1406992 12.0727325,10.2312737 L12.0560169,10.2509455 L12.0421243,10.2677276 C11.8889572,10.454997 11.7664267,10.6747624 11.6990883,10.8983548 C11.5436554,11.4144584 11.6805532,11.9025011 12.2263437,12.3624529 L12.2523524,12.3840818 L31.8548903,12.3840818 L31.8920433,12.3909886 C33.1601848,12.6267345 34.0999807,13.2777127 34.7455056,14.2077294 C35.0334335,14.6225511 35.2429799,15.0649607 35.3875596,15.5075342 C35.4383551,15.6630244 35.477539,15.8080675 35.5066449,15.9393513 L35.5151102,15.9784523 C35.5243087,16.02203 35.531163,16.0584048 35.5359648,16.0869188 L35.5410304,16.1191961 L35.5451493,16.1480061 L35.5454836,16.4872181 C35.5527233,19.7772973 35.6787277,21.3903371 36.034874,22.4072118 C36.3276449,23.243136 36.773405,23.6519203 37.6592322,23.8642856 L37.7052982,23.8750168 L37.7052982,3.82211507 L37.7025124,3.80213012 C37.5121659,2.48014263 37.0179631,1.65438082 36.3312104,1.19754715 L36.3068923,1.18157658 L36.2824154,1.16591116 C36.0349278,1.00956042 35.7785985,0.910785799 35.5283362,0.858063969 C35.4409853,0.839662087 35.3610015,0.828376121 35.2905159,0.822710549 L35.2547236,0.820246907 C35.2408977,0.819474175 35.2298952,0.818975511 35.2219065,0.818975511 Z" id="Stroke-1"></path>
            </g>
        </g>
    </g>
</svg>