<svg id="Group_23" data-name="Group 23" xmlns="http://www.w3.org/2000/svg" xmlns:xlink="http://www.w3.org/1999/xlink" width="213.866" height="349.659" viewBox="0 0 213.866 349.659">
  <defs>
    <clipPath id="clip-path">
      <rect id="Rectangle_16" data-name="Rectangle 16" width="213.866" height="349.659" fill="none"/>
    </clipPath>
  </defs>
  <g id="Group_22" data-name="Group 22" clip-path="url(#clip-path)">
    <path id="Path_76" data-name="Path 76" d="M207.653,157.457c0-13.565-8.382-22.686-20.854-22.686H158.3a3.666,3.666,0,0,1,.422.686,5.6,5.6,0,0,1,.531,2.456l2.591,4.931-.81,1.305L156,143.99c-.046.043-.089.085-.136.132a22.085,22.085,0,0,1-2.208,1.724l-.43,5.179-.589.306v51.493c0,25.5-17.732,44.269-42.6,45.714v14.781h-6.217V248.536c-23.709-1.379-40.922-18.519-42.468-42.22a4.026,4.026,0,0,1-.035-.531c-.054-.976-.089-1.96-.089-2.955V184.11a7.665,7.665,0,0,0-3.358,2.843l-1.6-.167a7.853,7.853,0,0,1,.108-6.352,8.545,8.545,0,0,1,4.319-3.711,5.906,5.906,0,0,0-4.423,1.321l-1.422-.782c.329-3.947,2.731-5.5,6.372-6.213v-7.623a6.631,6.631,0,0,1-1.851-2.359l.794-1.27a9.614,9.614,0,0,0,1.054-.066v-3.3c-3.56-3.947-4.447-8.576-2.223-12.685-2.5-1.627-4-4.815-4.257-8.967H6.213v76.949H0V51.605H6.213v76.941H55.947a12.5,12.5,0,0,1,2.343-3.381,29.3,29.3,0,0,1,2.944-2.549V119.5a15.929,15.929,0,0,1-5.117,3.595l-.782-.05-.918-.519-.43-.98a6.414,6.414,0,0,0-1.464-6.155,7.834,7.834,0,0,1-2.208-6.906,9.329,9.329,0,0,1,4.373-6.306,10.93,10.93,0,0,1,6.538-9.509V60.495c0-25.495,17.736-44.265,42.6-45.714V0h6.217V14.777c24.863,1.449,42.6,20.219,42.6,45.718V91.827a4.217,4.217,0,0,1,.891-.682,5.827,5.827,0,0,1,1.542-.593l4.977-3.269,1.367.635L162,93.051c.12.1.24.209.356.318a21.038,21.038,0,0,1,1.766,1.948l5.063-.031.813,1.27-2.01,4.342a28.84,28.84,0,0,1,1.7,3.319l4.7,2.475.124,1.5-3.641,2.75a4.521,4.521,0,0,1-2.208,3.192,7.7,7.7,0,0,1-5.217.608,15.939,15.939,0,0,1-1.747-.531,13.034,13.034,0,0,0-6.778-.968,7.223,7.223,0,0,0-2.3,1.065v14.239H186.8c12.472,0,20.854-9.118,20.854-22.686V51.605h6.213V105.86c0,11.841-5.384,21.2-14.029,25.8,8.645,4.605,14.029,13.956,14.029,25.8v54.266h-6.213Zm-36.693-48.8,1.375-1.038-1.759-.926a12.136,12.136,0,0,1,.383,1.964M151.736,149.73l.178-2.754c-.6.372-1.344.844-1.921,1.174-.124.07-.449.232-.569.3Zm-47.91,92.57V217.948h6.213V242.3c21.575-1.391,36.383-17.225,36.383-39.478V149.939c-.736.318-1.456.616-2.142.848l-2.785,4.5-1.5.016-2.611-4.044a4.452,4.452,0,0,1-2.63-2.309,7.726,7.726,0,0,1-.221-5.26,14.958,14.958,0,0,1,.651-1.712,13.166,13.166,0,0,0,1.453-6.7,9.594,9.594,0,0,0-3.912-5.206,4.382,4.382,0,0,0-2.487-.046c-.86.318-1.414.7-1.259,3.2l-1.27.86a6.037,6.037,0,0,1-3.381-4.431,8.08,8.08,0,0,1,1.112-5.632,8.9,8.9,0,0,0-5.876,2.948l-.492-.108c-3.494,8.374-8.92,11.907-19.053,12.5-6.829.4-10.8,2.115-13.394,5.849.217.062.43.128.651.19a67.238,67.238,0,0,1,35.407-4.667,14.817,14.817,0,0,1,12.426,12.437,18.914,18.914,0,0,1-.209,6.019c-.116.647-.232,1.236-.341,1.79a19.984,19.984,0,0,0-.535,4.036,5.061,5.061,0,0,0,5.167,4.567l.3,1.72c-4.276,1.669-8.15,1.545-10.9-.341a7.829,7.829,0,0,1-2.638-3.087,7.009,7.009,0,0,0,1.716,3.99l-.693,1.5a9.589,9.589,0,0,1-4.884-1.561,11.96,11.96,0,0,0,.252,4.888c1.1,4.9,4.288,10.082,9.211,14.99a15.128,15.128,0,0,0,4.857,2.921c4.605,1.588,5.574,3.738,5.574,5.26a5.6,5.6,0,0,1-.364,2.018l.4,5.21-1.2.895-4.427-1.689c-.213.074-.426.151-.647.221a22.265,22.265,0,0,1-2.51.589l-2.421,4.392-1.5.093-2.742-3.8c-.364.012-.728.023-1.077.023a26.671,26.671,0,0,1-2.944-.159l-4.079,2.948-1.394-.558-.864-4.656a4.519,4.519,0,0,1-1.65-3.44,7.706,7.706,0,0,1,2.014-4.865,8.258,8.258,0,0,0,2.065-5.128,31.572,31.572,0,0,0-1.65-8.889,3.406,3.406,0,0,0-3.029-2.649c-.844-.031-1.848.318-2.928,3.064l-1.662-.023a7.1,7.1,0,0,1,.748-7.216,9.393,9.393,0,0,0-4.334,3.854l-1.623-.492c-.031-4.671,1.464-7.89,4.71-10.137a6.059,6.059,0,0,0,2.692-2.932,7.724,7.724,0,0,1-3.041-1.224l.263-1.565c2.789-.86,4.764-3.079,4.687-5.276a3.929,3.929,0,0,0-.116-.794,10.105,10.105,0,0,1-5.376,5.241,5.982,5.982,0,0,1-6.67-1.193l.372-1.348a4.954,4.954,0,0,0,3.629-4.176,12.185,12.185,0,0,1-4.8,1.549,12.962,12.962,0,0,1,.159,1.5,11.246,11.246,0,0,1-2.6,7.813c-2.119,2.034-2.886,3.451-2.843,5.237a6.113,6.113,0,0,0,4.311,5.419l-.035,1.673a9.519,9.519,0,0,1-3.017.469,10.489,10.489,0,0,1-7.464-2.913,12.049,12.049,0,0,1-3.149-7.406,6.528,6.528,0,0,0,.046,7.406l-1.038,1.282a8.848,8.848,0,0,1-5.582-4.284c-.027-.054-.05-.112-.077-.167l-4.478,4.389a15.742,15.742,0,0,0-.6,8.7,16.815,16.815,0,0,0,4.16,8.657,15.029,15.029,0,0,0,4.857,2.924c4.6,1.588,5.57,3.738,5.57,5.26a5.651,5.651,0,0,1-.4,2.115l.4,5.19-1.2.9-4.524-1.728c-.17.058-.341.12-.515.174a21.324,21.324,0,0,1-2.5.589l-2.456,4.47-1.5.1-2.8-3.877c-.329.008-.666.023-.988.023a28.583,28.583,0,0,1-2.878-.147l-.972.7c3.564,17.206,17.024,28.9,35.422,30.085m37.967-90.858a11.643,11.643,0,0,1-2.037.2l.976,1.511Zm-7.332-41.868a5.858,5.858,0,0,0,6.046-2.766,6.624,6.624,0,0,0,.9-6.469,8.572,8.572,0,0,1-9.226,3.149l-.333-1.6a7.485,7.485,0,0,0,2.382-4.88,4,4,0,0,0-.825-2.727A6.126,6.126,0,0,1,129,96.424a4.682,4.682,0,0,1-3.873-1.851c-1.817-2.367-1.708-4.036-1.3-5.016a3.97,3.97,0,0,1,3.4-2.223,4.419,4.419,0,0,0,3.223-1.848l-.782-1.491a13.651,13.651,0,0,1-6.732-1.088c-2.049-1.015-4.075-2.39-4.3-6.988-.143-3,1.228-6.906,3.436-7.724,2.51-.93,5.287-.515,8.479,1.27l.709-.535a7.133,7.133,0,0,0-1.871-4.97,6.059,6.059,0,0,0-4.605-1.557l-.914-.895c.012-1.263-2.452-4.42-4.826-5.833l-5.717-.128-.848-.7a4.541,4.541,0,0,0-4.052-3.858c-1.851,0-3.846.829-3.846,2.649l-.887.891a5.3,5.3,0,0,0-5.52,3.157l-3.575,6.585c-2.7,4.288-5.744,5.93-10.059,5.38a11.314,11.314,0,0,0,9.11,3.176l.438,1.708a8.677,8.677,0,0,0-5.3,4.764,4.9,4.9,0,0,0,3.281,1.46,8.708,8.708,0,0,0,7.263-3.06l1.429,1.054a8.112,8.112,0,0,0-.418,7.968c2.591-.689,6.728-3.025,7.526-6.2l1.747.159c.283,4.354,1.034,7.026,2.471,8.731a8.758,8.758,0,0,0,4.365-8.057h1.778a10.479,10.479,0,0,1-5.919,9.962l-1.015-.159a12.112,12.112,0,0,1-3.153-7.359,14.8,14.8,0,0,1-8.2,4.826l-.953-.519A11.431,11.431,0,0,1,97.9,81.148a10.3,10.3,0,0,1-4.361,1.394,5.282,5.282,0,0,1-4.35,3.769,8.482,8.482,0,0,1-7.828-4.237,6.984,6.984,0,0,0-.748,7.007,10.357,10.357,0,0,0,9.734,5.527h.093l.573,1.576c-4.35,3.629-5.225,7.317-5.051,12,5.144,1.03,8.277-.043,11.051-3.711l1.511.918a11.663,11.663,0,0,0,1.46,12.639,16.853,16.853,0,0,0,9.738-9.5l1.677.554a10.183,10.183,0,0,0,4.334,11.291,16.453,16.453,0,0,0,5.655-9.436l1.747-.027c.91,4.509,5.729,7.634,11.62,7.634h.027a14.1,14.1,0,0,0-1.352-7.693Zm5.531-31.917a2.9,2.9,0,0,1-2.541,1.263c-2.506,0-4.513-1.7-6.128-3.064-3.916-3.319-6.895-3.126-10.861.736a5.051,5.051,0,0,0,1.832,3.873,5.214,5.214,0,0,1,4.4-2.983,7.719,7.719,0,0,1,5.4,2.289,7.188,7.188,0,0,0,4.8,1.925,5.3,5.3,0,0,0,5.279-5.334v-.108a4.528,4.528,0,0,0-3.552-3.835A5.2,5.2,0,0,1,140.1,74.4a3.426,3.426,0,0,1-.1,3.254m-36.236,83.677a4.789,4.789,0,0,0,3.463-.027,8.491,8.491,0,0,0,5.136-6.081l1.549-.306a5.855,5.855,0,0,1,1.344,3.494,7.144,7.144,0,0,1-4.032,6.225,10.787,10.787,0,0,0,4.667.178,3.741,3.741,0,0,0,2.425-1.429l.112-.124a7.994,7.994,0,0,1,2.5-2.006l1.038,1.41a4.6,4.6,0,0,0-1.216,3.66,5.545,5.545,0,0,0,4.377,4.946A10.525,10.525,0,0,1,125,162.5l1.689.383a7.57,7.57,0,0,0,2.893,6.616,8.4,8.4,0,0,0,6.244,1.011,6.511,6.511,0,0,1-3.583-5.485,21.725,21.725,0,0,1,.569-4.385c.108-.542.225-1.112.337-1.755a17.1,17.1,0,0,0,.194-5.458A13.054,13.054,0,0,0,122.36,142.49a65.468,65.468,0,0,0-32.486,3.746,20.661,20.661,0,0,1,7.878,5.353A11.4,11.4,0,0,1,100.123,156a9.3,9.3,0,0,0,5.585-2.355l1.507.635c0,3.56-.964,5.609-3.459,7.046Zm6.775,19.243a3.978,3.978,0,0,1,3.478-1.937,5.051,5.051,0,0,1,4.633,3.777,33.127,33.127,0,0,1,1.774,9.5,10.122,10.122,0,0,1-2.487,6.325,5.961,5.961,0,0,0-1.588,3.715,3.249,3.249,0,0,0,1.925,2.715c1.487.829,4.482,1.716,10.3,1.232a32.112,32.112,0,0,0,6.635-1.088c1.863-.581,4.993-2,4.993-4.95,0-1.317-1.6-2.622-4.373-3.579a16.805,16.805,0,0,1-5.535-3.347c-5.163-5.144-8.514-10.629-9.683-15.854a12.706,12.706,0,0,1-.019-6.62,6.643,6.643,0,0,1-1.611-4.063,8.594,8.594,0,0,1,.023-1.181,5.223,5.223,0,0,1-2.812,1.352,13.5,13.5,0,0,1-2.824.17,7.364,7.364,0,0,1-3.478,4.191,8.525,8.525,0,0,0-3.73,5.876,10.69,10.69,0,0,1,7.367-3.1l.492,1.673c-2.5,1.325-3.625,2.971-3.482,5.19Zm7.72,26.064.318,1.7,1.526-1.1a11.812,11.812,0,0,1-1.844-.608Zm10.431,1.038,1.251,1.728,1.077-1.964c-.782.093-1.561.174-2.3.236Zm9.928-2.432,1.518.581L140,204.205a8.283,8.283,0,0,1-1.394,1.034Zm-51.764,4.5-.128-1.666a8.641,8.641,0,0,1-1.449,1.061Zm-9.071,1.534c-.794.093-1.569.174-2.3.236h-.128l1.305,1.805Zm-12.561,1.17,1.9-1.36a18.4,18.4,0,0,1-2.378-.833Zm-8.165-36.913a7.2,7.2,0,0,1,6.72.434l-.209,1.619c-2.878.817-4.764,2.053-5.6,3.672a5.249,5.249,0,0,0-.434,3.292,8.187,8.187,0,0,1,5.279-2.6,5.194,5.194,0,0,1,4.764,2.134c1.53,2.312,1.162,11.086.542,13.816A8.5,8.5,0,0,1,65,202.644a4.266,4.266,0,0,0-1.906,3.153,3.255,3.255,0,0,0,1.925,2.719c1.484.829,4.478,1.712,10.3,1.228a32.107,32.107,0,0,0,6.635-1.085c1.863-.581,4.993-2,4.993-4.954,0-1.313-1.588-2.618-4.377-3.579a16.939,16.939,0,0,1-5.531-3.339A18.57,18.57,0,0,1,72.4,187.24a17.131,17.131,0,0,1,.775-9.931l.194-.287,5.217-5.117a10.868,10.868,0,0,1-.027-3.877,9.7,9.7,0,0,1-4.551,1.112h-.012a9.515,9.515,0,0,1-3.381-.6,8.8,8.8,0,0,1-7.05,3.97c-4.106.442-5.81,1.433-6.511,3.017Zm11.547-9.924a7.334,7.334,0,0,0,3.684-3.564,11.063,11.063,0,0,1-4.83,2.808v4.509a5.508,5.508,0,0,0,1.6-1.673,5.344,5.344,0,0,1-.771-.643ZM55.788,103.6a7.565,7.565,0,0,0-3.718,5.19,6,6,0,0,0,1.731,5.372,8.006,8.006,0,0,1,2.065,7.1,17.065,17.065,0,0,0,6.5-5.93,8.515,8.515,0,0,0,1.429-6.759,7.9,7.9,0,0,0-3.827-4.973H55.788Zm.689-1.778h2.948c.62-3.478,3.54-5.682,7.662-5.682,6.651,0,10.625,3.738,10.625,10,0,6.116-1.937,9.35-7.673,12.817a55.307,55.307,0,0,0-10.493,7.464,10.822,10.822,0,0,0-3.068,7.084c0,2.146.4,7.332,4.141,9.1l.356,1.294c-3.393,5.2-.24,10.33,4.052,13.6a5.758,5.758,0,0,0,.775-2.266l1.759.232a6.715,6.715,0,0,1-5.818,6,5.757,5.757,0,0,0,4.427,1.786c2.146,0,5.523-2.235,7.135-5.558l1.681.387a10.2,10.2,0,0,1-4.408,8.494,7.4,7.4,0,0,0,3.412.775h.015a7.371,7.371,0,0,0,5.361-2.134l1.487.891a9.145,9.145,0,0,0,.019,7.019,6.193,6.193,0,0,0,2.553,2.564,8.069,8.069,0,0,1,3.033-9.285l1.4.945a9.561,9.561,0,0,0,2.463,8.382,8.715,8.715,0,0,0,6.217,2.347,7.349,7.349,0,0,1-3.083-5.74c-.058-2.324.891-4.164,3.389-6.565a9.494,9.494,0,0,0,2.049-6.465,10.857,10.857,0,0,0-2.444-6.5,18.692,18.692,0,0,0-9.157-5.554,50.007,50.007,0,0,1-14.626-6.383l.964-1.491a46.662,46.662,0,0,0,11.221,5.283c2.9-4.5,7.449-6.639,15.06-7.081,9.742-.562,14.607-3.866,17.818-12.124a11.233,11.233,0,0,1-.438-4.075c-.333.283-.674.558-1.034.813h-1.023a12.091,12.091,0,0,1-5.872-9.35,19.175,19.175,0,0,1-9.238,7.061l-.98-.186a13.175,13.175,0,0,1-3.381-11.454,10,10,0,0,1-4.745,1.933,30.774,30.774,0,0,1,.279,4.389c0,6.05-8.545,15.261-15.164,17.984a51.142,51.142,0,0,0-10.8,6.186l-1.166-.112a7.131,7.131,0,0,1-.918-9.5,20.141,20.141,0,0,1,6.376-5.2c5.175-2.773,11.117-7.255,11.117-17.438,0-6.627-4.323-13.313-13.975-13.313-4.768.008-9.8,3.025-10.292,8.622Zm10.966-3.889v20.517c.546-.337,1.1-.674,1.677-1.019,5.221-3.161,6.817-5.8,6.817-11.3,0-5.105-3.095-8.072-8.494-8.2m78.978-37.44c0-22.253-14.808-38.087-36.383-39.478V45.369h-6.213V21.017C82.251,22.4,67.444,38.238,67.444,60.495V91.459c8.9.3,15.06,6.4,15.06,15.064,0,11.252-6.875,16.233-12.046,19.007a21.088,21.088,0,0,0-3.017,1.964v7.677a48.547,48.547,0,0,1,8.014-4.226c6.441-2.653,14.064-11.508,14.064-16.342a29.35,29.35,0,0,0-.279-4.288,19.523,19.523,0,0,1-4.319-.531l-.693-.817c-.267-4.8.368-8.87,4.1-12.7A11.716,11.716,0,0,1,79,89.82a8.922,8.922,0,0,1,1.828-9.908l1.449.2a7.131,7.131,0,0,0,6.67,4.447,3.413,3.413,0,0,0,2.7-2.041,6.112,6.112,0,0,1-4.621-2.622l-.077-.736a9.226,9.226,0,0,1,3.467-4.644,12.716,12.716,0,0,1-8.08-4.745l-.05-.9.36-.7.976-.465c4.265.9,6.91-.306,9.447-4.319l3.556-6.558a6.912,6.912,0,0,1,6.271-4.052c.476-2.107,2.649-3.56,5.527-3.56a6.087,6.087,0,0,1,5.6,4.574l5.283.112.411.112a13.881,13.881,0,0,1,5.791,6.624,7.632,7.632,0,0,1,5.109,2.049,9.074,9.074,0,0,1,2.413,6.682l-.352.709-1.534,1.17-.992.05c-2.917-1.743-5.361-2.208-7.472-1.425-.906.333-1.894,2.2-2.2,4.319,4.11-3.378,7.782-3.254,11.984.318,1.712,1.445,3.265,2.642,4.981,2.642a1.16,1.16,0,0,0,1.054-.453,1.692,1.692,0,0,0-.027-1.565,2.986,2.986,0,0,0-2.065-1.863l-.515-1.363.717-1.057.736-.387c3.056,0,6.608,2.541,6.608,5.8a7.065,7.065,0,0,1-6.9,7.22H136.9a8.918,8.918,0,0,1-6.062-2.444,5.931,5.931,0,0,0-4.148-1.766,3.429,3.429,0,0,0-2.839,2.1,12.173,12.173,0,0,0,6.194.794l.9.469,1.321,2.491-.031.883a6.262,6.262,0,0,1-4.784,3.091,2.417,2.417,0,0,0-1.987,1.143,3.628,3.628,0,0,0,1.069,3.25,3.105,3.105,0,0,0,2.444,1.158,4.763,4.763,0,0,0,3.66-2.223l1.294-.159a5.767,5.767,0,0,1,2.08,4.83,9.484,9.484,0,0,1-1.828,4.877c2.661.178,4.4-.872,6.678-3.738l1.429.046a8.73,8.73,0,0,1-6.616,13.22,13.617,13.617,0,0,1,.577,2.018,40.365,40.365,0,0,0,10.179-4.745V60.495Zm13.394,29.058L158.077,90.7a8.577,8.577,0,0,1,1.972.883Zm5.671,7.541c.453.635.891,1.255,1.294,1.855l.089.139.93-2.01Zm-10.923,14.4a14.662,14.662,0,0,1,7.716,1.023,13.136,13.136,0,0,0,1.526.476,5.887,5.887,0,0,0,4.005-.414,3.248,3.248,0,0,0,1.429-3.006c0-1.7-.682-4.764-3.939-9.625a32.1,32.1,0,0,0-4.172-5.283c-1.41-1.352-4.168-3.4-6.744-1.964-1.212.674-2.053,2.657-1.034,5.419a8.922,8.922,0,0,1-.287,6.864c-2.491,3.881-9.37,8.146-16.543,10.311a20.166,20.166,0,0,1-.046,4.214l-.844.794h-.108q3.056,4.642,5.438,7.557a5.012,5.012,0,0,0,.763-.043,8.563,8.563,0,0,1-1.511-6.883l1.538-.414c2.917,3.354,4.95,4.017,7.406,3.54a8.745,8.745,0,0,1-1.17-7.1c.674-2.293,4.237-4.962,6.577-5.458Zm-12.2,17.992a12.945,12.945,0,0,0,3.536,3,5.022,5.022,0,0,0,.523.2v-6.871a9.25,9.25,0,0,1-4.586-2.63,5.931,5.931,0,0,0,1.979,4.226l.058,1.34a3.162,3.162,0,0,1-1.511.736m14.75,6.72c-.554-1.193-2.553-1.7-5.473-1.394a14,14,0,0,1-6.511-.72c-2.711-1.29-6.558-5.822-11.748-13.828a13.412,13.412,0,0,1-11-6.306,19.126,19.126,0,0,1-2.979,5.229,11.162,11.162,0,0,0-.031,5.558,10.927,10.927,0,0,1,7.909-2.607l.658,1.5a6.679,6.679,0,0,0-1.867,5.686,4.385,4.385,0,0,0,1.15,2.258,3.436,3.436,0,0,1,2.409-3.23,6.129,6.129,0,0,1,3.711.046,10.789,10.789,0,0,1,5.051,6.631,14.8,14.8,0,0,1-1.573,7.642,14,14,0,0,0-.577,1.5,5.926,5.926,0,0,0,.124,4.036,3.247,3.247,0,0,0,2.882,1.65c1.681.12,4.784-.341,9.862-3.246a31.911,31.911,0,0,0,5.554-3.792c1.445-1.317,3.687-3.928,2.444-6.6m2.456,6.112-.941-1.786a9.563,9.563,0,0,1-1.05,1.728Zm-45.121-79.4c-.38,0-.624.015-.643.015l-1.7.1v-1.7a3.667,3.667,0,0,1,3.006-4.234,3.761,3.761,0,0,1,.91-.043,5.819,5.819,0,0,1,5.043,3.97l.046.26-.031.26a2.106,2.106,0,0,1-2.828,1.9,12.267,12.267,0,0,0-3.8-.527m4.532-.941a.7.7,0,0,0,.519-.635,4.338,4.338,0,0,0-3.471-2.673c-1.79,0-2.32.751-2.32,2.673,0,0,.283-.015.74-.015a13.673,13.673,0,0,1,4.35.624.576.576,0,0,0,.182.027" fill="#161615" fill-rule="evenodd"/>
    <path id="Path_77" data-name="Path 77" d="M17.277,72.892,24.33,84.28c.48.782.926,1.236,1.793,1.236,1.057,0,1.739-.794,1.739-2.018V70.615H25.837l0,12.348L18.8,71.606a1.984,1.984,0,0,0-1.77-1.15,1.7,1.7,0,0,0-1.782,1.882V85.357h2.03Z" transform="translate(43.811 202.448)" fill="#161615"/>
    <path id="Path_78" data-name="Path 78" d="M23.179,79.431,25.906,72.9l.046-.112c.019-.046.046-.116.077-.182.043.089.085.194.124.287l2.735,6.534Zm-2.491,5.93,1.673-4.017h7.344l1.669,4.017h2.2L28.009,72.2c-.263-.612-.759-1.747-1.979-1.747-1.243,0-1.739,1.181-1.979,1.751L18.492,85.361Z" transform="translate(53.135 202.448)" fill="#161615"/>
    <path id="Path_79" data-name="Path 79" d="M27.176,85.242h2.03V72.41h5.767V70.5H21.408V72.41h5.767Z" transform="translate(61.514 202.563)" fill="#161615"/>
    <rect id="Rectangle_15" data-name="Rectangle 15" width="2.03" height="14.746" transform="translate(96.49 273.063)" fill="#161615"/>
    <path id="Path_80" data-name="Path 80" d="M36.939,82.443c-1.038,1.162-2.746,1.162-3.99,1.162s-2.952,0-3.99-1.162c-.976-1.1-1.057-2.735-1.057-4.454s.081-3.366,1.057-4.462c1.038-1.158,2.742-1.158,3.99-1.158s2.952,0,3.99,1.158C37.915,74.619,38,76.261,38,77.989s-.081,3.366-1.057,4.454m-3.99,3.075c1.305,0,3.742,0,5.38-1.642,1.778-1.774,1.778-4.551,1.778-5.888s0-4.117-1.774-5.891h0c-1.642-1.642-4.075-1.642-5.38-1.642s-3.742,0-5.384,1.642c-1.77,1.77-1.77,4.555-1.77,5.891s0,4.117,1.77,5.888c1.642,1.642,4.079,1.642,5.384,1.642" transform="translate(74.119 202.445)" fill="#161615"/>
    <path id="Path_81" data-name="Path 81" d="M31.878,72.884l7.053,11.4a2.014,2.014,0,0,0,1.793,1.232c1.061,0,1.743-.79,1.743-2.018V70.614h-2.03V82.966L33.4,71.609a1.976,1.976,0,0,0-1.774-1.154,1.7,1.7,0,0,0-1.782,1.882V85.356h2.034Z" transform="translate(85.754 202.445)" fill="#161615"/>
    <path id="Path_82" data-name="Path 82" d="M37.778,79.431,40.543,72.8c.019-.046.05-.12.085-.194.043.093.081.194.124.29l2.731,6.534Zm-2.494,5.93,1.673-4.017H44.3l1.673,4.017h2.188L42.612,72.2c-.271-.608-.767-1.743-1.983-1.743-1.239,0-1.739,1.181-1.979,1.751L33.091,85.361Z" transform="translate(95.083 202.448)" fill="#161615"/>
    <path id="Path_83" data-name="Path 83" d="M38.955,85.242h8.692V83.329H39.273a.964.964,0,0,1-.256-.023.634.634,0,0,1-.012-.163V70.5H36.972v13a1.671,1.671,0,0,0,.554,1.34,2.314,2.314,0,0,0,1.429.4" transform="translate(106.235 202.563)" fill="#161615"/>
    <path id="Path_84" data-name="Path 84" d="M4.375,86.978a1.812,1.812,0,0,0-.519,1.329V101.17h2.03V94.636h6.182V92.722H5.886V88.4l0-.066h8.463V86.424h-8.4a1.971,1.971,0,0,0-1.58.554" transform="translate(11.08 248.33)" fill="#161615"/>
    <path id="Path_85" data-name="Path 85" d="M16.256,96.022a3.854,3.854,0,0,1-.593,2.483c-.709.833-1.991.906-3.137.906s-2.429-.074-3.134-.906A3.849,3.849,0,0,1,8.8,96.022v-9.6H6.77V96.4a4.819,4.819,0,0,0,1.112,3.374c1.414,1.557,3.846,1.557,4.644,1.557s3.234,0,4.652-1.561a4.824,4.824,0,0,0,1.108-3.37V86.424h-2.03Z" transform="translate(19.453 248.33)" fill="#161615"/>
    <path id="Path_86" data-name="Path 86" d="M20.788,98.891,13.754,87.534a1.989,1.989,0,0,0-1.77-1.15A1.7,1.7,0,0,0,10.2,88.266v13.018h2.026l0-12.472,7.053,11.4c.476.782.926,1.236,1.793,1.236,1.057,0,1.739-.794,1.739-2.018V86.543h-2.03Z" transform="translate(29.314 248.215)" fill="#161615"/>
    <path id="Path_87" data-name="Path 87" d="M16.016,99.249l-.043.008a1.9,1.9,0,0,1-.027-.383V88.6a.339.339,0,0,1,.077-.232.518.518,0,0,1,.248-.035h4.644a3.568,3.568,0,0,1,2.87,1.3,5.894,5.894,0,0,1,.957,3.85,9.154,9.154,0,0,1-.689,4.2,2.976,2.976,0,0,1-2.882,1.576H16.233c-.1,0-.174-.008-.217-.008m4.842-12.825H16.175a2.2,2.2,0,0,0-1.65.662,2.371,2.371,0,0,0-.608,1.79V99.167a1.833,1.833,0,0,0,.674,1.561,2.7,2.7,0,0,0,1.739.442h4.88a5,5,0,0,0,4.16-1.84c1.313-1.666,1.48-3.955,1.48-5.771,0-1.379,0-3.68-1.693-5.4a5.9,5.9,0,0,0-4.3-1.731" transform="translate(39.989 248.33)" fill="#161615"/>
    <path id="Path_88" data-name="Path 88" d="M21.859,89.455C22.9,88.3,24.6,88.3,25.848,88.3s2.952,0,3.99,1.158C30.9,90.64,30.9,92.534,30.9,93.917c0,1.724-.081,3.366-1.057,4.458-1.038,1.158-2.742,1.158-3.99,1.158s-2.952,0-3.99-1.158c-.976-1.1-1.057-2.738-1.057-4.458s.081-3.362,1.057-4.462m9.37-1.433c-1.638-1.638-4.071-1.638-5.38-1.638s-3.742,0-5.384,1.642c-1.77,1.774-1.77,4.555-1.77,5.891s0,4.114,1.77,5.891c1.642,1.638,4.075,1.638,5.384,1.638s3.742,0,5.38-1.638c1.778-1.778,1.778-4.559,1.778-5.891s0-4.114-1.778-5.891Z" transform="translate(53.715 248.212)" fill="#161615"/>
    <path id="Path_89" data-name="Path 89" d="M23.264,86.978a1.812,1.812,0,0,0-.519,1.329V101.17h2.03V94.636h6.182V92.722H24.775V88.4l0-.066h8.463V86.424h-8.4a1.975,1.975,0,0,0-1.58.554" transform="translate(65.355 248.33)" fill="#161615"/>
    <path id="Path_90" data-name="Path 90" d="M28.871,94.713h6.589a1.316,1.316,0,0,1,1.011.519,4.28,4.28,0,0,1,.271,1.755A3.66,3.66,0,0,1,36.4,98.8c-.333.453-.918.453-1.484.453H29.432a4.8,4.8,0,0,1-.515-.015,1.82,1.82,0,0,1-.046-.566Zm7.4-2.336a1.745,1.745,0,0,1-1.425.426H28.871V88.64a1.1,1.1,0,0,1,.058-.294,1.287,1.287,0,0,1,.248-.008h5.969a1.274,1.274,0,0,1,.972.275,2.723,2.723,0,0,1,.488,1.879,3.914,3.914,0,0,1-.333,1.886m1.9,1.817a2.513,2.513,0,0,0-.573-.511,2.713,2.713,0,0,0,.43-.438,4.126,4.126,0,0,0,.689-2.618,4.544,4.544,0,0,0-1-3.281,3.2,3.2,0,0,0-2.417-.922H28.94a1.946,1.946,0,0,0-1.6.651,2.67,2.67,0,0,0-.5,1.646V98.916a2.285,2.285,0,0,0,.55,1.654,2.261,2.261,0,0,0,1.728.6h.209l6.244,0a2.764,2.764,0,0,0,2.328-.964,4.252,4.252,0,0,0,.957-3.176h-.484l.484-.143a3.929,3.929,0,0,0-.686-2.692" transform="translate(77.125 248.33)" fill="#161615"/>
    <path id="Path_91" data-name="Path 91" d="M39.784,96.022a3.829,3.829,0,0,1-.6,2.483c-.709.833-1.987.906-3.134.906s-2.429-.074-3.134-.906a3.849,3.849,0,0,1-.593-2.483v-9.6H30.3V96.4a4.854,4.854,0,0,0,1.108,3.374c1.414,1.557,3.846,1.557,4.648,1.557s3.238,0,4.648-1.561A4.806,4.806,0,0,0,41.81,96.4V86.424H39.784Z" transform="translate(87.058 248.33)" fill="#161615"/>
    <path id="Path_92" data-name="Path 92" d="M35.767,99.233a.633.633,0,0,1-.012-.163V86.424H33.73v13a1.643,1.643,0,0,0,.546,1.34,2.393,2.393,0,0,0,1.429.4H44.4V99.257H36.023a.964.964,0,0,1-.256-.023" transform="translate(96.92 248.33)" fill="#161615"/>
    <path id="Path_93" data-name="Path 93" d="M49.139,93.884H47.113v4.989a.649.649,0,0,1-.074.345c-.027.031-.1.039-.275.039H41.686a2.948,2.948,0,0,1-2.731-1.7A9.708,9.708,0,0,1,38.4,93.8a8.852,8.852,0,0,1,.569-3.66,3.433,3.433,0,0,1,3.172-1.8h6.685V86.424H42.438a6.561,6.561,0,0,0-3.455.837c-2.374,1.4-2.7,4.009-2.7,6.616,0,2.219.248,4.691,2.107,6.182a5.253,5.253,0,0,0,3.316,1.108h5.334a2.349,2.349,0,0,0,1.569-.5,1.977,1.977,0,0,0,.531-1.514Z" transform="translate(104.255 248.33)" fill="#161615"/>
    <path id="Path_94" data-name="Path 94" d="M44.225,95.358,47,88.719l.077-.182c.043.089.089.194.124.287l2.735,6.534Zm18.86.36a3.194,3.194,0,0,0,2.87-1.429,5.718,5.718,0,0,0,.686-3.134,5.9,5.9,0,0,0-.689-3.215,3.344,3.344,0,0,0-3.021-1.4H57.123a2.544,2.544,0,0,0-1.82.6,2.387,2.387,0,0,0-.728,1.995v12.046L49.059,88.13c-.267-.612-.763-1.747-1.979-1.747-1.247,0-1.743,1.185-1.983,1.755l-5.558,13.146H41.73l1.677-4.013h7.344l1.677,4.013H56.6V88.889a.4.4,0,0,1,.124-.349c.089-.077.17-.085.38-.085h5.628a1.858,1.858,0,0,1,1.3.36c.5.469.5,1.693.5,2.266a5.049,5.049,0,0,1-.3,2.188,1.2,1.2,0,0,1-1.007.535H58.955a.906.906,0,0,0-.961.933v.318c0,.449.194.616.546.914l6.221,5.314H67.81l-6.573-5.566Z" transform="translate(113.608 248.212)" fill="#161615"/>
    <path id="Path_95" data-name="Path 95" d="M53.66,95.358l2.769-6.635.081-.186c.043.089.085.194.124.287l2.735,6.534Zm2.855-8.975c-1.247,0-1.743,1.185-1.983,1.755L49.012,101.2V86.542H46.978v14.746h4.187l1.677-4.013h7.344l1.677,4.013h2.188L58.494,88.13c-.267-.612-.767-1.747-1.979-1.747" transform="translate(134.986 248.212)" fill="#161615"/>
    <path id="Path_96" data-name="Path 96" d="M30.312,112.355v-4.323H15.872c-3.993,0-7.057-1.321-8.858-3.823-2.1-2.924-2.1-6.988-2.1-9.676,0-3.8.182-8.1,2.386-10.935,2.529-3.277,6.531-3.653,9.319-3.653h13.15V75.628H15.477c-6.283,0-9.842,2.839-11.4,4.528C.576,83.921.092,89.27.092,94.488c0,6.744,1.2,10.7,4.16,13.658a15.117,15.117,0,0,0,11.074,4.21Z" transform="translate(0.264 217.309)" fill="#161615"/>
    <path id="Path_97" data-name="Path 97" d="M22.839,112.753c1.991,0,8.053,0,11.554-3.85,1.84-2.053,2.735-4.784,2.735-8.351V75.627H32.507V99.611c0,1.832,0,4.6-1.561,6.434-1.855,2.2-5.159,2.386-8.107,2.386s-6.248-.186-8.111-2.39c-1.557-1.828-1.557-4.6-1.557-6.43V75.627H8.55v24.925c0,3.564.895,6.294,2.738,8.355,3.5,3.846,9.56,3.846,11.55,3.846" transform="translate(24.568 217.306)" fill="#161615"/>
    <path id="Path_98" data-name="Path 98" d="M43.666,108.033h-20.9a1.968,1.968,0,0,1-.81-.112h0c-.1-.1-.116-.267-.116-.608V75.628H17.226v32.579a3.876,3.876,0,0,0,1.3,3.184,5.7,5.7,0,0,0,3.447.964H43.666Z" transform="translate(49.497 217.309)" fill="#161615"/>
    <path id="Path_99" data-name="Path 99" d="M21.5,79.946H36.064v32.409h4.621V79.946H55.249V75.628H21.5Z" transform="translate(61.779 217.308)" fill="#161615"/>
    <path id="Path_100" data-name="Path 100" d="M30.355,75.627v24.925c0,3.564.895,6.294,2.742,8.355,3.494,3.846,9.556,3.846,11.547,3.846s8.061,0,11.558-3.85c1.836-2.057,2.735-4.788,2.735-8.351V75.627H54.316v23.98c0,1.836,0,4.605-1.565,6.438-1.855,2.2-5.155,2.386-8.107,2.386s-6.248-.186-8.107-2.39c-1.561-1.828-1.561-4.6-1.561-6.434V75.627Z" transform="translate(87.222 217.306)" fill="#161615"/>
    <path id="Path_101" data-name="Path 101" d="M39.032,81.914v30.441h4.613V81.317a1.264,1.264,0,0,1,.4-1.081,1.455,1.455,0,0,1,1.131-.291H59.379a4.943,4.943,0,0,1,3.467.984c1.336,1.255,1.329,4.42,1.329,5.907,0,3.831-.461,5.074-.79,5.651a3.332,3.332,0,0,1-2.766,1.476H49.835a2.045,2.045,0,0,0-2.157,2.115v.794c0,1.011.414,1.371,1.286,2.13L64.6,112.355h6.922L54.921,98.29H60.27a7.954,7.954,0,0,0,7.042-3.482C68.791,92.457,69,89.68,69,87.03c0-2.673-.2-5.713-1.693-7.983s-3.99-3.42-7.421-3.42H45.214a6.19,6.19,0,0,0-4.42,1.441,5.725,5.725,0,0,0-1.762,4.846" transform="translate(112.154 217.306)" fill="#161615"/>
    <path id="Path_102" data-name="Path 102" d="M54.415,108.033a7.278,7.278,0,0,1-1.588-.2,1.392,1.392,0,0,1-.178-.674V95.754h21.97V91.431H52.649V81.217c0-.794.159-.961.2-1a2.93,2.93,0,0,1,1.166-.275H75.118V75.628h-21.5a5.175,5.175,0,0,0-4.377,1.642,6.177,6.177,0,0,0-1.216,3.947v25.347a5.892,5.892,0,0,0,1.379,4.458,5.216,5.216,0,0,0,4.024,1.332h.139l.147-.968v.968h21.6v-4.323Z" transform="translate(138.003 217.309)" fill="#161615"/>
  </g>
</svg>
