<svg xmlns="http://www.w3.org/2000/svg" xmlns:xlink="http://www.w3.org/1999/xlink" width="364.219" height="196.667" viewBox="0 0 364.219 196.667">
  <defs>
    <clipPath id="clip-path">
      <rect id="Rectangle_14" data-name="Rectangle 14" width="364.219" height="196.667" fill="none"/>
    </clipPath>
  </defs>
  <g id="Group_21" data-name="Group 21" transform="translate(0 0)">
    <g id="Group_20" data-name="Group 20" transform="translate(0 0)" clip-path="url(#clip-path)">
      <path id="Path_52" data-name="Path 52" d="M78.752,51.433a30.36,30.36,0,0,0,14.669-4.243c7.864-4.682,11.929-13.522,11.929-22.711C105.351,9.984,95.72,0,81.225,0A28.818,28.818,0,0,0,66.556,4.24C58.778,9.014,54.627,17.762,54.627,26.951c0,14.494,9.631,24.481,24.125,24.481M69.649,6.98a17.528,17.528,0,0,1,8.659-2.209c11.665,0,17.762,10.073,17.762,21.741,0,6.627-1.939,14.138-5.741,17.937a18.544,18.544,0,0,1-8.662,2.209C70,46.658,63.905,36.585,63.905,24.92c0-6.63,1.945-14.138,5.744-17.94" transform="translate(112.98 -0.001)" fill="#161615"/>
      <path id="Path_53" data-name="Path 53" d="M50.09.056,38.072,1.207a83.9,83.9,0,0,1-1.236,8.481c-1.414,7.689-7.333,38.62-10.868,56.471-3.36,17.409-6.278,32.434-7.778,39.325-.795,3.713-1.5,7.514-2.034,10.254l.442.706,7.6-.706L31.8,73.4c2.918-.175,6.186-.264,9.631-.264,4.154,0,8.836.178,11.665.264,2.384,16.173,4.507,29.074,6.275,43.127l9.1-.795v-.884C65.824,99.564,63,82.33,59.9,62.006,56.81,41.416,52.481,15.876,50.09.056M42.227,68.014c-3.093,0-6.977,0-9.367-.178l5.127-27.66c2.651-14.138,4.946-26.865,5.569-32.342h.353c.353,5.566,1.945,16.7,4.24,32.078L52.3,67.75c-2.918.175-6.716.264-10.076.264" transform="translate(33.414 0.115)" fill="#161615"/>
      <path id="Path_54" data-name="Path 54" d="M33.143,48.727a58.761,58.761,0,0,1,.97,12.285v4.774a19.924,19.924,0,0,1-6.891,1.233c-11.49,0-17.94-9.542-17.94-21.03,0-6.011,1.678-12.549,5.48-17.234a18.9,18.9,0,0,1,9.278-2.3,26.668,26.668,0,0,1,14.316,4.507l2.651-6.805-.62-.617A47.465,47.465,0,0,0,27.4,21.687C11.49,21.687,0,32.558,0,48.463,0,62.6,9.9,71.794,24.039,71.794c6.983,0,12.549-1.592,17.676-1.77,0-7.683,0-16.169.442-21.56l-.709-.62Z" transform="translate(0 44.853)" fill="#161615"/>
      <path id="Path_55" data-name="Path 55" d="M97.059,47.883c5.741-2.945,9.846-7.554,9.846-13.273,0-7.953-7.158-12.549-16.875-12.549-5.483,0-9.545.353-15.467.442.442,7.069.617,16.525.617,22.711,0,7.425-.175,17.412-.531,25.012l.531.706,8.484-.884c-.442-7.069-.531-19.09-.531-27.04,0-5.271.1-10.791.267-15.8a22.736,22.736,0,0,1,3.887-.371c6.186,0,10.782,3.62,10.782,9.806,0,6.983-4.86,10.607-11.576,12.463v.884A109.708,109.708,0,0,1,94.8,58.472c4.24,4.682,9.275,10.162,12.549,13.433l8.128-.795v-.884c-2.915-3.979-5.566-7.336-9.014-11.49-3.225-3.891-6.529-7.7-9.4-10.852" transform="translate(154.212 45.626)" fill="#161615"/>
      <path id="Path_56" data-name="Path 56" d="M43.881.375l-7.422.884a139.49,139.49,0,0,1,1.148,19.529c0,4.86,0,8.929-.086,13.7H37.34c-2.12-3.709-7.6-10.426-11.22-14.58C19.845,12.571,14.985,6.913,10.388.375L1.463,1.7v.884c1.678,2.74,2.12,7.864,2.12,13.963,0,9.189-.617,22.625-1.414,32.253l.531.709,7.422-.884c-.617-6.716-.884-15.111-.884-23.153,0-3.887,0-9.545.089-13.785H9.5c3.89,4.86,9.895,12.2,13.7,16.789,6.1,7.247,11.49,13.874,15.375,21.033L43.8,48.8c-.445-8.481-.445-15.9-.445-22.444,0-8.925.267-17.231,1.062-25.273Z" transform="translate(3.026 0.775)" fill="#161615"/>
      <path id="Path_57" data-name="Path 57" d="M56.541,21.585c0-5.287.1-10.723.267-15.7A108.66,108.66,0,0,1,71.563,6.915L73.155,1.08,72.447.374c-7.333.531-13.43.706-20.588.706-5.3,0-12.11-.175-17.412-.439l-3,5.477L31.707,7a135.766,135.766,0,0,1,16.5-1.111c.267,6.149.38,13,.38,17.9,0,7.425-.178,17.409-.531,25.009l.531.709,8.484-.887c-.442-7.069-.531-19.087-.531-27.04" transform="translate(65.031 0.773)" fill="#161615"/>
      <path id="Path_58" data-name="Path 58" d="M56.345,21.585c0-6.98.178-14.405.445-20.5L56.345.374l-8.573.884c.445,7.072.62,16.351.62,22.536,0,7.425-.175,17.409-.531,25.009l.531.709,8.484-.887c-.445-7.069-.531-19.087-.531-27.04" transform="translate(98.803 0.773)" fill="#161615"/>
      <path id="Path_59" data-name="Path 59" d="M75.407,48.8l.531.706,7.422-.884c-.617-6.716-.884-15.111-.884-23.153,0-3.89,0-9.542.089-13.785h.178c3.887,4.86,9.895,12.2,13.693,16.789,6.1,7.247,11.494,13.878,15.378,21.033l5.213-.706c-.439-8.484-.439-15.906-.439-22.447,0-8.925.264-17.234,1.062-25.273l-.531-.709-7.425.884a138.57,138.57,0,0,1,1.151,19.532c0,4.86,0,8.925-.092,13.7h-.172c-2.123-3.713-7.6-10.429-11.224-14.58C93.083,12.57,88.22,6.915,83.626.374L74.7,1.7v.887c1.675,2.737,2.117,7.864,2.117,13.96,0,9.192-.617,22.622-1.411,32.256" transform="translate(154.498 0.773)" fill="#161615"/>
      <path id="Path_60" data-name="Path 60" d="M119.667.288,109.5,1.347a57.346,57.346,0,0,1-2.74,8.484c-1.592,4.154-4.682,11.49-7.158,17.673-2.209,5.569-4.86,11.754-6.189,14.85-.792,1.856-1.678,3.8-2.562,6.1l.531.706,8.042-.884c1.264-4.21,3.3-10.3,5.256-15.881,2.439-.153,4.909-.2,7.293-.2,3.467,0,6.876.021,10.325.132,1.976,6.057,3.8,11.825,5.492,17.633l9.2-.973V48.1c-2.476-6.452-6.008-15.82-9.2-24.745-3.179-8.836-5.744-16.084-8.128-23.064m-6.891,27.129c-2.043,0-4.17-.1-6.228-.245.258-.709.509-1.4.749-2.053,2.031-5.566,5.48-13.963,6.538-18.115h.175c.948,4.369,4.3,13.316,6.6,20.14-2.639.209-5.265.273-7.83.273" transform="translate(187.91 0.595)" fill="#161615"/>
      <path id="Path_61" data-name="Path 61" d="M139.324,41.468c-4.507,1.942-9.72,2.562-15.378,2.562-2,0-4.437-.08-6.587-.291-.249-6.934-.307-15.829-.307-22.153,0-6.983.181-14.405.445-20.5l-.445-.706-8.57.884c.442,7.069.617,16.351.617,22.536,0,7.422-.175,17.142-.528,24.742l.528.706c4.243-.264,7.781-.439,12.638-.439,4.6,0,10.96.086,15.82.439l2.3-7.069Z" transform="translate(224.364 0.775)" fill="#161615"/>
      <path id="Path_62" data-name="Path 62" d="M52.734,65.63c-2.007,0-4.437-.08-6.587-.291-.245-6.934-.3-15.826-.3-22.156,0-6.98.175-14.405.442-20.5l-.442-.706-8.576.884c.445,7.069.62,16.347.62,22.533,0,7.425-.175,17.142-.531,24.745l.531.706c4.243-.264,7.778-.439,12.638-.439,4.6,0,10.96.086,15.82.439l2.3-7.066-.531-.709c-4.507,1.945-9.72,2.562-15.378,2.562" transform="translate(77.076 45.448)" fill="#161615"/>
      <path id="Path_63" data-name="Path 63" d="M64.539,65.63c-2,0-4.437-.08-6.587-.291-.245-6.934-.3-15.826-.3-22.156,0-6.98.178-14.405.442-20.5l-.442-.706-8.573.884c.442,7.069.62,16.347.62,22.533,0,7.425-.178,17.142-.531,24.745l.531.706c4.24-.264,7.775-.439,12.635-.439,4.6,0,10.96.086,15.82.439l2.3-7.066-.534-.709C75.41,65.013,70.2,65.63,64.539,65.63" transform="translate(101.498 45.448)" fill="#161615"/>
      <path id="Path_64" data-name="Path 64" d="M77.941,65.392a58.057,58.057,0,0,1-8.131-.531C69.6,59.5,69.507,53.5,69.47,47.8a44.214,44.214,0,0,1,5.29-.264A47.583,47.583,0,0,1,85.63,48.691l2.209-6.367-.795-.439a59.628,59.628,0,0,1-11.227.881c-2.476,0-4.256,0-6.363-.107.006-6.333.1-10.76.267-15a47.106,47.106,0,0,1,6.805-.439A58.563,58.563,0,0,1,91.2,28.981l1.5-6.36-.709-.531c-5.213.267-10.162.353-15.464.353H60.882c.445,5.833.623,17.056.623,23.773,0,6.452-.178,16.173-.531,23.684l.531.706c3-.264,8.042-.439,13.166-.439,5.569,0,11.929.175,17.587.439l2.209-6.713-.531-.709a52.955,52.955,0,0,1-15.995,2.209" transform="translate(125.917 45.686)" fill="#161615"/>
      <path id="Path_65" data-name="Path 65" d="M120.977,23.007a86.6,86.6,0,0,1-5.922,12.638,77.17,77.17,0,0,1-4.5,7.425,103.422,103.422,0,0,0-5.836-9.192,126.273,126.273,0,0,0-9.364-12.018L86.6,23.8v.884A130.072,130.072,0,0,1,97.825,38.737a65.213,65.213,0,0,1,6.275,9.987,12.147,12.147,0,0,1,1.325,5.038c0,5.744-.089,10.337-.442,16.878l.531.706L114,70.46c-.442-7.063-.531-17.05-.531-22.266,3.713-6.189,7.6-12.107,11.929-18.557a59.782,59.782,0,0,0,4.068-6.719l-.445-.795Z" transform="translate(179.11 45.209)" fill="#161615"/>
      <path id="Path_66" data-name="Path 66" d="M21.744,53.063h7.732V74.182h3.709V53.063h7.732V49.884H21.744Z" transform="translate(44.972 103.171)" fill="#161615"/>
      <path id="Path_67" data-name="Path 67" d="M45.5,60.087H33.749v-10.2H30.039V74.18h3.709V63.266H45.5V74.18h3.709V49.886H45.5Z" transform="translate(62.127 103.173)" fill="#161615"/>
      <path id="Path_68" data-name="Path 68" d="M43.139,63.266h8.57V60.087h-8.57V53.061H53.3V49.886H39.427V74.18h14.4V71H43.139Z" transform="translate(81.543 103.174)" fill="#161615"/>
      <path id="Path_69" data-name="Path 69" d="M56.34,49.884H50.112v24.3h3.709V64.418a17.89,17.89,0,0,0,2.961.353c3.752,0,7.907-2.341,7.907-7.64,0-4.418-2.6-7.247-8.349-7.247m.267,11.883a11.584,11.584,0,0,1-2.786-.353V52.977h2.344c2.915,0,4.639,1.325,4.639,4.329,0,2.915-1.638,4.461-4.2,4.461" transform="translate(103.642 103.17)" fill="#161615"/>
      <path id="Path_70" data-name="Path 70" d="M65.164,49.886,55.757,74.18H59.6l2.918-7.732h8.747l3,7.732h4.022l-9.5-24.294Zm-1.5,13.38L66.931,54.3l3.182,8.965Z" transform="translate(115.318 103.174)" fill="#161615"/>
      <path id="Path_71" data-name="Path 71" d="M68.913,49.884H65.2v24.3H79.6V71H68.913Z" transform="translate(134.854 103.171)" fill="#161615"/>
      <path id="Path_72" data-name="Path 72" d="M80.37,49.886,70.963,74.18H74.8l2.918-7.732H86.47l3,7.732H93.5L84,49.886Zm-1.5,13.38L82.137,54.3l3.185,8.965Z" transform="translate(146.767 103.174)" fill="#161615"/>
      <path id="Path_73" data-name="Path 73" d="M91.793,52.908a21.631,21.631,0,0,1,5.744.97l.574-3.136a22.382,22.382,0,0,0-6.14-1.016c-7.336,0-12.2,5.477-12.2,12.81,0,7.511,4.774,12.417,11.929,12.417A20.458,20.458,0,0,0,98.111,73.8l-.531-3.136a15.989,15.989,0,0,1-5.523,1.1c-4.857,0-8.349-4.111-8.349-9.588,0-5.652,3.4-9.275,8.085-9.275" transform="translate(164.992 102.843)" fill="#161615"/>
      <path id="Path_74" data-name="Path 74" d="M91.737,63.266h8.57V60.087h-8.57V53.061H101.9V49.886H88.027V74.18h14.4V71H91.737Z" transform="translate(182.059 103.174)" fill="#161615"/>
      <path id="Path_75" data-name="Path 75" d="M10.984,106.091l7.658-.8L30.6,43.794l-7.661.807Z" transform="translate(22.718 90.575)" fill="#161615"/>
    </g>
  </g>
</svg>
