<?xml version="1.0" encoding="UTF-8"?>
<svg id="Layer_1" data-name="Layer 1" xmlns="http://www.w3.org/2000/svg" viewBox="0 0 425.29 81.44">
  <defs>
    <style>
      .cls-1 {
        fill: #231f20;
      }
    </style>
  </defs>
  <path class="cls-1" d="m62.9,50.1c0,21.52-15.01,31.34-31.45,31.34S0,71.62,0,50.1s15.01-31.23,31.45-31.23,31.45,9.71,31.45,31.23Zm-44.36,0c0,12.47,5.52,17.21,12.91,17.21s12.91-4.75,12.91-17.21-5.74-17.1-12.91-17.1-12.91,4.41-12.91,17.1Z"/>
  <path class="cls-1" d="m87.84,28.69c3.86-6.51,11.81-9.38,18.21-9.38,15.34,0,26.15,11.59,26.15,31.01s-10.81,31.12-26.15,31.12c-6.4,0-14.35-2.87-18.21-9.38v7.95h-18.21V0h18.21v28.69Zm-.88,21.63c0,12.25,5.96,16.99,13.13,16.99s13.24-5.96,13.24-16.99-5.96-16.88-13.24-16.88-13.13,4.63-13.13,16.88Z"/>
  <path class="cls-1" d="m175.13,38.07c-1.21-4.41-5.85-5.74-11.59-5.74-6.29,0-9.49,1.43-9.49,4.41,0,2.76,2.1,4.3,7.28,5.3l11.04,1.99c14.24,2.65,21.08,6.84,21.08,17.33,0,13.35-12.25,20.08-28.69,20.08s-27.04-6.84-29.13-20.75h16.88c1.66,5.74,6.18,7.5,12.47,7.5s11.04-1.77,11.04-5.3c0-2.65-2.32-4.3-9.27-5.52l-10.59-1.77c-11.48-1.88-19.31-7.61-19.31-18.21,0-11.81,12.47-18.32,27.15-18.32,13.57,0,25.82,5.41,28.14,18.98h-16.99Z"/>
  <path class="cls-1" d="m256.9,42.38h-16.99c-1.66-6.95-5.96-9.38-11.37-9.38-6.51,0-12.91,4.41-12.91,17.1s6.4,17.21,12.91,17.21,10.81-3.53,12.14-9.16h16.99c-4.08,17.66-18.32,23.28-30.24,23.28-19.53,0-30.35-12.58-30.35-31.45s12.36-31.12,30.35-31.12c12.36,0,25.93,5.63,29.46,23.5Z"/>
  <path class="cls-1" d="m300.38,71.73c-3.64,5.85-8.28,9.71-17.44,9.71-15.78,0-20.53-8.94-20.53-25.05V20.64h18.21v31.23c0,8.5.22,15.45,9.05,15.45,7.83,0,10.7-4.3,10.7-15.34v-31.34h18.21v59.37h-18.21v-8.28Z"/>
  <path class="cls-1" d="m365.48,38.07c-2.1-.33-3.31-.33-4.97-.33-8.83,0-13.35,3.2-13.35,12.47v29.79h-18.21V20.64h17.55v11.26c2.76-7.06,7.72-11.37,16.22-11.7h1.32c.55,0,.99,0,1.43.11v17.77Z"/>
  <path class="cls-1" d="m406.2,40.61c0-7.06-3.42-9.49-10.04-9.49-5.85,0-9.82,2.98-10.59,8.72h-16.99c.88-11.15,11.48-21.08,29.13-21.08s26.82,6.95,26.48,24.94l-.22,12.91v6.18c0,6.51.44,13.46,1.32,17.21h-17.88l-.22-7.17c-4.41,6.29-11.48,8.61-19.97,8.61-11.26,0-20.53-6.62-20.53-17.44,0-14.57,16.44-19.31,39.51-21.08v-2.32Zm.44,13.02c-12.69,1.21-21.19,2.65-21.19,9.05,0,3.86,3.64,6.4,8.39,6.4,7.28,0,12.8-3.09,12.8-14.01v-1.43Z"/>
</svg>