<?xml version="1.0" encoding="UTF-8" standalone="no"?>
<svg width="42px" height="40px" viewBox="0 0 42 40" version="1.1" xmlns="http://www.w3.org/2000/svg" xmlns:xlink="http://www.w3.org/1999/xlink">
    <!-- Generator: Sketch 41 (35326) - http://www.bohemiancoding.com/sketch -->
    <title>Group 5</title>
    <desc>Created with Sketch.</desc>
    <defs></defs>
    <g id="Page-1" stroke="none" stroke-width="1" fill="none" fill-rule="evenodd">
        <g id="Artboard" transform="translate(-475.000000, -61.000000)">
            <g id="Group-5" transform="translate(476.000000, 61.000000)">
                <g id="Group-3">
                    <path d="M0,0.21875 L39.6957881,39.9145381" id="Path-2" stroke="#979797"></path>
                    <path d="M0,0.21875 L39.6957881,39.9145381" id="Path-2" stroke="#979797" transform="translate(19.847894, 20.066644) scale(-1, 1) translate(-19.847894, -20.066644) "></path>
                    <path d="M7,7.13671875 L31.8098676,31.9465863" id="Path-2" stroke="#C8415E" stroke-width="2"></path>
                    <path d="M7,8.13671875 L31.8098676,32.9465863" id="Path-2" stroke="#C8415E" stroke-width="2" transform="translate(19.404934, 20.541653) scale(-1, 1) translate(-19.404934, -20.541653) "></path>
                </g>
                <g id="Group-4">
                    <path d="M0,0.21875 L39.6957881,39.9145381" id="Path-2" stroke="#C8415E"></path>
                    <path d="M0,0.21875 L39.6957881,39.9145381" id="Path-2" stroke="#C8415E" transform="translate(19.847894, 20.066644) scale(-1, 1) translate(-19.847894, -20.066644) "></path>
                    <g id="Group-3" transform="translate(9.000000, 10.000000)" stroke="#979797" stroke-width="2">
                        <path d="M1,0.110426683 L20.847894,20.1491659" id="Path-2"></path>
                        <path d="M3.55271368e-15,0.91811899 L19.847894,20.9568582" id="Path-2" transform="translate(9.923947, 10.937489) scale(-1, 1) translate(-9.923947, -10.937489) "></path>
                    </g>
                </g>
            </g>
        </g>
    </g>
</svg>